<svg width="35" height="36" fill="none" xmlns="http://www.w3.org/2000/svg"><path fill-rule="evenodd" clip-rule="evenodd" d="M5.125 17.953c0-6.919 5.548-12.514 12.375-12.514 1.976 0 3.841.468 5.497 1.299a.75.75 0 00.673-1.34 13.708 13.708 0 00-6.17-1.459c-7.67 0-13.875 6.282-13.875 14.014 0 7.733 6.205 14.015 13.875 14.015s13.875-6.282 13.875-14.015c0-.525-.029-1.044-.084-1.555a.75.75 0 00-1.492.163c.05.457.076.922.076 1.392 0 6.92-5.548 12.515-12.375 12.515S5.125 24.873 5.125 17.953zm26.033-9.789a.75.75 0 00-1.066-1.055L17.5 19.835l-3.842-3.883a.75.75 0 00-1.066 1.055l4.375 4.422a.75.75 0 001.066 0L31.158 8.164z" fill="#FE888D"/></svg>