<svg data-v-fde0c5aa="" xmlns="http://www.w3.org/2000/svg" viewBox="0 0 300 300" class="iconLeftSlogan"><!----><defs data-v-fde0c5aa=""><!----></defs><rect data-v-fde0c5aa="" fill="#F3E9F1" x="0" y="0" width="300px" height="300px" class="logo-background-square"></rect><defs data-v-fde0c5aa=""><!----></defs><g data-v-fde0c5aa="" id="2b51437f-5c18-4293-b7bf-b8569e345c50" fill="#261624" transform="matrix(2.18645581361039,0,0,2.18645581361039,103.42789179283736,121.57910987459078)"><path d="M1.66 5.17L0.38 5.17Q1.52 4.25 1.71 4.25L1.71 4.25L7.36 4.25Q7.28 4.25 6.91 4.57Q6.54 4.89 6.35 5.03Q6.15 5.17 6.03 5.17L6.03 5.17L2.99 5.17L2.99 8.49L6.31 8.49Q6.23 8.50 6.06 8.64Q5.89 8.79 5.69 8.96L5.69 8.96Q5.15 9.42 4.98 9.42L4.98 9.42L2.99 9.42L2.99 11.65Q2.99 12.41 2.76 12.89L2.76 12.89Q2.67 13.08 2.53 13.15L2.53 13.15L6.33 13.15Q6.72 13.15 7.14 12.97L7.14 12.97L7.56 12.80Q7.21 13.21 6.07 13.82L6.07 13.82Q5.58 14.08 5.41 14.08L5.41 14.08L1.05 14.08Q1.66 13.25 1.66 12.45L1.66 12.45L1.66 9.42L0.70 9.42Q1.30 8.94 1.66 8.67L1.66 8.67L1.66 5.17ZM10.52 7.86Q11.00 7.59 11.53 7.45Q12.05 7.30 12.41 7.30Q12.78 7.30 13.05 7.35L13.05 7.35L13.05 5.11Q13.05 4.38 12.78 4.14L12.78 4.14Q12.66 4.03 12.48 4.03L12.48 4.03Q12.27 4.03 11.86 4.13L11.86 4.13Q13.58 2.82 14.38 2.41L14.38 2.41L14.38 12.19Q14.38 12.74 14.49 12.92L14.49 12.92Q14.70 13.26 15.20 13.26L15.20 13.26Q15.41 13.26 15.61 13.22L15.61 13.22Q15.41 13.38 15.21 13.55Q15.02 13.72 14.81 13.86L14.81 13.86Q14.32 14.19 13.95 14.19Q13.58 14.19 13.42 14.12Q13.26 14.05 13.17 13.92L13.17 13.92Q13.04 13.73 13.04 13.18L13.04 13.18Q11.63 14.22 10.79 14.22L10.79 14.22Q9.54 14.22 8.87 13.38L8.87 13.38Q8.26 12.62 8.26 11.33L8.26 11.33Q8.26 10.28 8.91 9.32L8.91 9.32Q9.52 8.42 10.52 7.86L10.52 7.86ZM13.05 12.60L13.05 9.21Q12.74 8.72 12.25 8.47Q11.76 8.22 11.22 8.22Q10.69 8.22 10.38 8.40Q10.06 8.58 9.88 8.88L9.88 8.88Q9.58 9.40 9.58 10.18Q9.58 10.96 9.71 11.49Q9.85 12.02 10.14 12.43L10.14 12.43Q10.79 13.30 12.02 13.30L12.02 13.30Q12.29 13.30 12.55 13.14L12.55 13.14Q13.05 12.85 13.05 12.60L13.05 12.60ZM22.63 8.11L22.63 8.11Q22.63 9.62 20.47 12.82L20.47 12.82Q20.35 13.00 20.23 13.19Q20.11 13.38 20.02 13.49Q19.93 13.60 19.82 13.68Q19.71 13.75 19.56 13.85Q19.42 13.94 19.27 14.03Q19.11 14.12 18.98 14.21L18.98 14.21Q18.67 14.42 18.66 14.44L18.66 14.44Q18.38 13.30 18.08 12.16Q17.78 11.03 17.52 10.39Q17.26 9.74 17.15 9.48Q17.05 9.22 16.90 8.98L16.90 8.98Q16.55 8.41 16.11 8.41L16.11 8.41Q15.87 8.41 15.56 8.59L15.56 8.59Q16.52 7.46 17.49 7.46L17.49 7.46Q18.21 7.46 19.03 10.01L19.03 10.01Q19.37 11.07 19.55 11.78Q19.74 12.49 19.80 12.76L19.80 12.76Q20.77 11.23 21.16 9.94L21.16 9.94Q21.31 9.44 21.31 9.02L21.31 9.02Q21.31 8.39 20.83 8.39L20.83 8.39Q20.66 8.39 20.43 8.48L20.43 8.48Q20.66 8.39 20.84 8.22Q21.01 8.05 21.19 7.89L21.19 7.89Q21.64 7.47 22.14 7.47Q22.63 7.47 22.63 8.11ZM24.21 3.41L25.53 2.48L25.57 3.26L25.57 3.62Q25.57 3.94 25.49 4.02Q25.41 4.09 25.31 4.16L25.31 4.16Q24.93 4.43 24.21 4.89L24.21 4.89Q24.24 4.21 24.24 4.19Q24.24 4.16 24.21 3.41L24.21 3.41ZM26.96 13.24L26.96 13.24Q26.76 13.41 26.56 13.58Q26.37 13.75 26.15 13.89L26.15 13.89Q25.66 14.21 25.21 14.21L25.21 14.21Q24.79 14.21 24.62 14.08L24.62 14.08Q24.27 13.82 24.27 13.13L24.27 13.13L24.27 9.88Q24.27 9.15 24.00 8.93L24.00 8.93Q23.88 8.83 23.73 8.83Q23.59 8.83 23.49 8.84Q23.39 8.86 23.29 8.88Q23.19 8.90 23.08 8.92L23.08 8.92Q23.42 8.65 23.72 8.44Q24.01 8.23 24.23 8.09Q24.44 7.94 24.81 7.68Q25.19 7.42 25.59 7.21L25.59 7.21L25.59 12.03Q25.59 12.73 25.68 12.91L25.68 12.91Q25.87 13.29 26.53 13.29L26.53 13.29Q26.71 13.29 26.96 13.24ZM28.15 8.16L27.26 8.16L28.15 7.46L28.15 6.49Q28.52 6.23 28.68 6.09Q28.83 5.95 28.94 5.89Q29.05 5.83 29.17 5.76L29.17 5.76Q29.46 5.59 29.48 5.56L29.48 5.56L29.48 7.23L31.67 7.23Q31.58 7.23 31.22 7.55L31.22 7.55Q30.53 8.16 30.34 8.16L30.34 8.16L29.48 8.16L29.48 11.82Q29.48 13.08 30.21 13.28L30.21 13.28Q30.43 13.33 30.62 13.33L30.62 13.33Q30.93 13.33 31.15 13.24Q31.37 13.15 31.51 13.07L31.51 13.07Q31.10 13.71 30.34 14.04L30.34 14.04Q29.96 14.21 29.51 14.21Q29.06 14.21 28.81 14.05Q28.57 13.90 28.42 13.64L28.42 13.64Q28.15 13.18 28.15 12.41L28.15 12.41L28.15 8.16ZM36.75 9.28L36.75 12.06L36.74 12.54Q36.74 13.07 37.04 13.21L37.04 13.21Q37.15 13.27 37.30 13.27L37.30 13.27Q37.54 13.27 37.80 13.16L37.80 13.16Q37.54 13.27 37.34 13.45Q37.15 13.62 36.96 13.79L36.96 13.79Q36.46 14.21 35.96 14.21L35.96 14.21Q35.46 14.21 35.43 13.63L35.43 13.63Q35.42 13.48 35.42 13.33L35.42 13.33Q34.19 14.18 33.16 14.18L33.16 14.18Q32.29 14.18 31.96 13.66L31.96 13.66Q31.83 13.47 31.83 13.13Q31.83 12.80 32.04 12.46Q32.25 12.12 32.56 11.84L32.56 11.84Q33.12 11.32 33.91 10.99L33.91 10.99Q34.50 10.73 35.42 10.70L35.42 10.70L35.42 10.40Q35.42 9.31 35.23 8.93Q35.03 8.54 34.71 8.36Q34.40 8.18 33.97 8.18L33.97 8.18Q33.26 8.18 32.71 8.46L32.71 8.46Q33.46 7.84 33.81 7.64L33.81 7.64Q34.53 7.24 35.11 7.24Q35.70 7.24 35.99 7.41Q36.29 7.58 36.46 7.86L36.46 7.86Q36.75 8.35 36.75 9.28L36.75 9.28ZM33.54 13.04Q33.70 13.16 33.92 13.21Q34.14 13.27 34.57 13.27Q35 13.27 35.42 13.06L35.42 13.06L35.42 11.63L34.32 11.63Q33.72 11.63 33.28 11.71L33.28 11.71Q33.19 12.00 33.19 12.27Q33.19 12.54 33.28 12.73Q33.37 12.92 33.54 13.04ZM41.76 13.23L41.76 13.23Q41.54 13.41 41.33 13.59Q41.13 13.77 40.91 13.90L40.91 13.90Q40.42 14.22 39.90 14.22L39.90 14.22Q39.15 14.22 39.08 13.18L39.08 13.18Q39.07 12.90 39.07 12.63L39.07 12.63L39.07 5.32Q39.07 4.38 38.64 4.10L38.64 4.10Q38.47 3.98 38.30 3.98L38.30 3.98Q38.08 3.98 38.01 3.99Q37.93 4.00 37.88 4.01L37.88 4.01Q38.86 3.32 39.12 3.19L39.12 3.19Q39.46 3.00 39.83 2.82Q40.20 2.64 40.39 2.54L40.39 2.54L40.39 11.97Q40.39 12.25 40.40 12.49Q40.40 12.73 40.48 12.91L40.48 12.91Q40.65 13.28 41.34 13.28L41.34 13.28Q41.56 13.28 41.76 13.23ZM54.10 13.15L56.29 13.15Q56.21 13.16 55.84 13.48L55.84 13.48Q55.14 14.08 54.95 14.08L54.95 14.08L52.64 14.08Q53.01 13.68 53.10 13.44L53.10 13.44Q53.25 13.06 53.25 12.45L53.25 12.45L53.25 9.42L48.17 9.42L48.17 11.43Q48.17 12.08 48.10 12.31L48.10 12.31Q48.01 12.67 47.67 13.15L47.67 13.15L49.87 13.15Q49.77 13.17 49.44 13.45Q49.12 13.74 48.98 13.84L48.98 13.84Q48.67 14.08 48.54 14.08L48.54 14.08L46.22 14.08Q46.72 13.69 46.81 13.00L46.81 13.00Q46.83 12.76 46.83 12.45L46.83 12.45L46.83 5.17L45.55 5.17L45.82 4.96Q46.69 4.25 46.88 4.25L46.88 4.25L49.87 4.25Q49.79 4.25 49.45 4.54Q49.12 4.83 48.98 4.94L48.98 4.94Q48.67 5.17 48.54 5.17L48.54 5.17L48.17 5.17L48.17 8.49L53.25 8.49L53.25 5.17L51.97 5.17L52.23 4.96Q53.11 4.25 53.31 4.25L53.31 4.25L56.29 4.25Q56.21 4.25 55.87 4.54Q55.54 4.83 55.41 4.94L55.41 4.94Q55.09 5.17 54.95 5.17L54.95 5.17L54.58 5.17L54.58 11.43Q54.58 12.08 54.52 12.31L54.52 12.31Q54.43 12.68 54.10 13.15L54.10 13.15ZM61.00 8.42L61.00 8.42Q62.10 7.43 62.62 7.43Q63.13 7.43 63.13 8.09L63.13 8.09L63.13 12.43Q63.13 12.84 63.31 13.04Q63.50 13.25 63.93 13.25L63.93 13.25Q64.23 13.25 64.52 13.14L64.52 13.14Q64.29 13.22 64.11 13.40Q63.93 13.57 63.72 13.75L63.72 13.75Q63.21 14.19 62.56 14.19L62.56 14.19Q61.93 14.19 61.84 13.49L61.84 13.49Q61.82 13.30 61.81 13.09L61.81 13.09Q60.32 14.22 59.17 14.22L59.17 14.22Q58.39 14.22 57.99 13.54L57.99 13.54Q57.63 12.92 57.63 11.85L57.63 11.85L57.63 9.55Q57.63 8.96 57.53 8.74L57.53 8.74Q57.34 8.32 56.84 8.32L56.84 8.32Q56.60 8.32 56.36 8.42L56.36 8.42Q57.19 7.68 57.71 7.48L57.71 7.48Q57.96 7.38 58.24 7.38L58.24 7.38Q58.98 7.38 58.98 8.33L58.98 8.33Q58.98 8.33 58.98 8.78L58.98 8.78Q58.98 8.78 58.97 11.33L58.97 11.33Q58.97 12.31 59.34 12.77L59.34 12.77Q59.73 13.29 60.66 13.29L60.66 13.29Q61.11 13.29 61.59 12.90L61.59 12.90Q61.71 12.80 61.81 12.74L61.81 12.74L61.81 9.13Q61.81 8.62 61.56 8.43L61.56 8.43Q61.46 8.35 61.31 8.35L61.31 8.35Q61.16 8.35 61.00 8.42ZM66.73 2.41L66.73 8.57Q68.11 7.37 69.25 7.37L69.25 7.37Q70.41 7.37 71.05 8.29L71.05 8.29Q71.61 9.08 71.61 10.27L71.61 10.27Q71.61 11.19 71.01 12.14L71.01 12.14Q70.43 13.06 69.55 13.67L69.55 13.67Q68.61 14.30 67.69 14.30L67.69 14.30Q66.73 14.30 66.06 13.64L66.06 13.64Q65.41 12.98 65.41 12.01L65.41 12.01L65.41 5.24Q65.41 4.66 65.34 4.46L65.34 4.46Q65.20 4.03 64.78 4.03L64.78 4.03Q64.67 4.03 64.50 4.07Q64.33 4.11 64.22 4.13L64.22 4.13Q64.89 3.60 65.24 3.38Q65.58 3.15 65.95 2.89Q66.33 2.63 66.73 2.41L66.73 2.41ZM70.23 12.09L70.23 12.09Q70.29 11.68 70.29 11.18Q70.29 10.68 70.17 10.15Q70.04 9.63 69.77 9.21L69.77 9.21Q69.15 8.29 68.03 8.29L68.03 8.29Q67.44 8.29 67.07 8.85L67.07 8.85Q66.73 9.36 66.73 10.00L66.73 10.00L66.73 11.69Q66.73 12.46 67.29 12.95L67.29 12.95Q67.83 13.44 68.66 13.44L68.66 13.44Q70 13.44 70.23 12.09Z"></path></g><defs data-v-fde0c5aa=""><linearGradient data-v-fde0c5aa="" gradientTransform="rotate(25)" id="2adc016b-e7ce-4bbb-bde1-4b67a1dfdfe8" x1="0%" y1="0%" x2="100%" y2="0%"><stop data-v-fde0c5aa="" offset="0%" stop-color="#E98C00" stop-opacity="1"></stop><stop data-v-fde0c5aa="" offset="100%" stop-color="#8F5BFE" stop-opacity="1"></stop></linearGradient></defs><g data-v-fde0c5aa="" id="f7feef1c-1d8f-4436-8909-4dcb024457b3" stroke="none" fill="url(#2adc016b-e7ce-4bbb-bde1-4b67a1dfdfe8)" transform="matrix(1.601835783023279,0,0,1.601835783023279,40,124.37062747162753)"><path d="M29.625 1l-3.099 3.172H4.054v23.657h22.472L29.625 31H1V1h28.625M32 0H0v32h32l-5.054-5.172H5.054V5.172h21.893L32 0z"></path><path d="M21.038 10.962v10.076H10.962V10.962h10.076m1-1H9.962v12.076h12.076V9.962z"></path></g><defs data-v-fde0c5aa=""><!----></defs><g data-v-fde0c5aa="" id="a3eb9e6c-853d-414d-8a5a-3febb70e564a" fill="#261624" transform="matrix(0.2621818555348746,0,0,0.2621818555348746,104.07521776099597,162.15786220446745)"><path d="M6.93 4.68C6.34 4.17 5.46 3.92 4.30 3.92L1.89 3.92L0.70 3.92L0.70 4.19C0.70 4.34 0.80 4.42 0.98 4.44L1.12 4.44C1.19 4.44 1.29 4.45 1.43 4.45C1.57 4.45 1.72 4.47 1.89 4.47L1.89 13.26C1.72 13.26 1.57 13.27 1.43 13.27C1.29 13.27 1.19 13.29 1.12 13.29L0.98 13.29C0.80 13.30 0.70 13.38 0.70 13.54L0.70 13.82L1.89 13.82L2.60 13.82L3.78 13.82L3.78 13.54C3.78 13.38 3.68 13.30 3.50 13.29L3.37 13.29C3.30 13.29 3.19 13.27 3.05 13.27C2.91 13.27 2.77 13.26 2.60 13.26L2.60 9.83L4.30 9.83C4.84 9.83 5.33 9.74 5.77 9.60C6.20 9.45 6.57 9.25 6.87 8.99C7.18 8.72 7.42 8.41 7.57 8.05C7.74 7.69 7.81 7.29 7.81 6.86C7.81 5.92 7.52 5.18 6.93 4.68ZM6.90 7.81C6.78 8.11 6.59 8.36 6.36 8.57C6.12 8.78 5.82 8.95 5.47 9.07C5.12 9.20 4.73 9.25 4.30 9.25L2.60 9.25L2.60 4.48L4.30 4.48C5.22 4.48 5.92 4.69 6.40 5.10C6.86 5.50 7.10 6.09 7.10 6.85C7.10 7.20 7.03 7.52 6.90 7.81ZM17.19 3.92L16.00 3.92L16.00 4.19C16.00 4.34 16.10 4.42 16.28 4.44L16.42 4.44C16.49 4.44 16.59 4.45 16.73 4.45C16.87 4.45 17.02 4.47 17.19 4.47L17.19 13.26C17.02 13.26 16.87 13.27 16.73 13.27C16.59 13.27 16.49 13.29 16.42 13.29L16.28 13.29C16.10 13.30 16.02 13.38 16.02 13.54L16.02 13.82L17.19 13.82L23.13 13.82L23.13 13.22L23.13 11.76L22.78 11.76C22.58 11.76 22.50 11.89 22.48 12.11C22.48 12.14 22.47 12.19 22.47 12.29C22.47 12.39 22.47 12.53 22.46 12.74C22.44 12.95 22.43 13.09 22.43 13.22L17.91 13.22L17.91 9.09L21.85 9.09L21.85 8.51L17.91 8.51L17.91 4.51L22.43 4.51C22.46 5.12 22.48 5.50 22.48 5.63C22.50 5.85 22.58 5.96 22.78 5.96L23.13 5.96L23.13 4.51L23.13 3.92ZM39.70 13.29L39.61 13.29L39.42 13.29C39.34 13.29 39.26 13.27 39.17 13.27L36.20 9.53C36.12 9.42 36.01 9.32 35.90 9.25C36.33 9.21 36.72 9.11 37.07 8.96C37.42 8.81 37.70 8.61 37.95 8.37C38.19 8.13 38.39 7.85 38.51 7.55C38.64 7.24 38.71 6.89 38.71 6.51C38.71 5.66 38.43 5.03 37.87 4.58C37.31 4.14 36.46 3.92 35.31 3.92L32.90 3.92L31.72 3.92L31.72 4.19C31.72 4.34 31.81 4.42 31.99 4.44L32.13 4.44C32.20 4.44 32.30 4.45 32.44 4.45C32.58 4.45 32.73 4.47 32.90 4.47L32.90 13.26C32.73 13.26 32.58 13.27 32.44 13.27C32.30 13.27 32.20 13.29 32.13 13.29L31.99 13.29C31.81 13.30 31.71 13.38 31.71 13.54L31.71 13.82L32.90 13.82L33.61 13.82L34.79 13.82L34.79 13.54C34.79 13.38 34.69 13.30 34.51 13.29L34.37 13.29C34.30 13.29 34.20 13.27 34.06 13.27C33.92 13.27 33.78 13.26 33.61 13.26L33.61 9.34L34.79 9.34C34.99 9.34 35.13 9.35 35.21 9.39C35.29 9.44 35.38 9.52 35.46 9.62L38.64 13.64C38.70 13.71 38.74 13.75 38.79 13.78C38.85 13.80 38.92 13.82 38.99 13.82L39.06 13.82L39.61 13.82L39.97 13.82L39.97 13.54C39.97 13.38 39.89 13.30 39.70 13.29ZM35.21 8.81L33.61 8.81L33.61 4.48L35.31 4.48C36.19 4.48 36.86 4.66 37.32 5.00C37.79 5.33 38.01 5.87 38.01 6.57C38.01 6.92 37.95 7.21 37.83 7.49C37.70 7.77 37.51 7.99 37.27 8.19C37.03 8.39 36.74 8.55 36.39 8.65C36.04 8.75 35.64 8.81 35.21 8.81ZM53.90 9.91C53.76 9.65 53.56 9.39 53.33 9.21C53.09 9.03 52.84 8.88 52.54 8.75C52.25 8.62 51.93 8.51 51.62 8.41C51.31 8.32 51.00 8.20 50.71 8.11C50.41 7.99 50.15 7.87 49.91 7.71C49.67 7.56 49.49 7.38 49.35 7.15C49.21 6.93 49.13 6.65 49.13 6.31C49.13 6.06 49.18 5.82 49.28 5.59C49.38 5.35 49.52 5.15 49.70 4.97C49.88 4.79 50.11 4.65 50.39 4.55C50.67 4.45 50.97 4.40 51.34 4.40C52.01 4.40 52.63 4.51 53.19 4.75C53.23 5.54 53.26 5.99 53.26 6.06C53.27 6.29 53.35 6.41 53.55 6.41L53.89 6.41L53.89 4.38C53.00 4.00 52.16 3.81 51.34 3.81C50.88 3.81 50.47 3.88 50.11 4.02C49.74 4.16 49.45 4.34 49.21 4.58C48.97 4.82 48.78 5.08 48.65 5.39C48.52 5.70 48.47 6.02 48.47 6.36C48.47 6.78 48.54 7.14 48.68 7.42C48.82 7.70 49.01 7.92 49.25 8.12C49.49 8.32 49.74 8.46 50.04 8.58C50.33 8.71 50.65 8.82 50.96 8.92C51.27 9.02 51.56 9.11 51.87 9.21C52.16 9.31 52.43 9.45 52.67 9.60C52.91 9.76 53.09 9.94 53.23 10.16C53.37 10.39 53.44 10.68 53.44 11.03C53.44 11.35 53.38 11.66 53.27 11.94C53.16 12.22 53.00 12.46 52.79 12.67C52.58 12.88 52.32 13.05 52.01 13.16C51.70 13.29 51.35 13.33 50.96 13.33C50.18 13.33 49.52 13.20 48.99 12.95C48.97 12.75 48.97 12.54 48.96 12.32C48.94 12.10 48.94 11.91 48.93 11.76C48.92 11.61 48.92 11.52 48.92 11.51C48.90 11.28 48.80 11.17 48.61 11.17L48.27 11.17L48.27 13.02L48.27 13.20L48.27 13.38C49.13 13.75 50.01 13.93 50.93 13.93C51.44 13.93 51.88 13.85 52.28 13.69C52.67 13.54 53.00 13.31 53.27 13.05C53.54 12.78 53.76 12.46 53.90 12.10C54.04 11.73 54.11 11.34 54.11 10.92C54.11 10.51 54.04 10.18 53.90 9.91ZM71.64 8.86C71.64 8.11 71.51 7.41 71.29 6.79C71.06 6.17 70.74 5.64 70.32 5.19C69.90 4.75 69.41 4.40 68.84 4.16C68.26 3.92 67.61 3.79 66.91 3.79C66.21 3.79 65.58 3.92 65.00 4.16C64.43 4.40 63.92 4.75 63.50 5.19C63.08 5.64 62.76 6.17 62.54 6.79C62.31 7.41 62.19 8.11 62.19 8.86C62.19 9.63 62.31 10.33 62.54 10.95C62.76 11.56 63.08 12.10 63.50 12.54C63.92 12.99 64.43 13.33 65.00 13.57C65.58 13.80 66.21 13.93 66.91 13.93C67.61 13.93 68.26 13.80 68.84 13.57C69.41 13.33 69.90 12.99 70.32 12.54C70.74 12.10 71.06 11.56 71.29 10.95C71.51 10.33 71.64 9.63 71.64 8.86ZM70.88 8.86C70.88 9.56 70.80 10.18 70.60 10.72C70.41 11.27 70.14 11.75 69.79 12.12C69.44 12.50 69.02 12.81 68.53 13.01C68.04 13.20 67.51 13.30 66.91 13.30C66.32 13.30 65.79 13.20 65.30 13.01C64.81 12.81 64.39 12.50 64.04 12.12C63.69 11.75 63.41 11.27 63.21 10.72C63.01 10.18 62.93 9.56 62.93 8.86C62.93 8.18 63.01 7.55 63.21 7.00C63.41 6.45 63.69 5.98 64.04 5.60C64.39 5.22 64.81 4.91 65.30 4.72C65.79 4.52 66.32 4.41 66.91 4.41C67.51 4.41 68.04 4.52 68.53 4.72C69.02 4.91 69.44 5.22 69.79 5.60C70.14 5.98 70.41 6.45 70.60 7.00C70.80 7.55 70.88 8.18 70.88 8.86ZM88.47 3.92L87.84 3.92L86.62 3.92L86.62 4.19C86.62 4.34 86.72 4.42 86.90 4.44L87.04 4.44C87.11 4.44 87.22 4.45 87.36 4.45C87.50 4.45 87.67 4.47 87.84 4.47L87.84 12.22C87.84 12.35 87.84 12.49 87.85 12.63L81.44 4.05C81.40 3.99 81.37 3.95 81.33 3.93C81.28 3.92 81.24 3.91 81.17 3.91L80.82 3.91L79.63 3.91L79.63 4.19C79.63 4.34 79.73 4.42 79.91 4.44L80.05 4.44C80.12 4.44 80.22 4.45 80.36 4.45C80.50 4.45 80.65 4.47 80.82 4.47L80.82 13.26C80.65 13.26 80.50 13.27 80.36 13.27C80.22 13.27 80.12 13.29 80.05 13.29L79.91 13.29C79.73 13.30 79.63 13.38 79.63 13.54L79.63 13.82L80.82 13.82L81.44 13.82L82.66 13.82L82.66 13.54C82.66 13.38 82.56 13.30 82.38 13.29L82.24 13.29C82.17 13.29 82.04 13.27 81.90 13.27C81.76 13.27 81.61 13.26 81.44 13.26L81.44 5.49C81.44 5.36 81.44 5.22 81.42 5.08L87.86 13.68C87.93 13.78 88.00 13.82 88.12 13.82L88.47 13.82L88.47 4.47C88.63 4.47 88.77 4.45 88.91 4.45C89.05 4.45 89.17 4.44 89.24 4.44L89.36 4.44C89.54 4.42 89.64 4.34 89.64 4.19L89.64 3.92ZM106.97 13.22L106.51 13.17L102.73 3.91L102.02 3.91L98.22 13.17L97.78 13.22C97.59 13.23 97.51 13.33 97.51 13.50L97.51 13.82L97.96 13.82L98.25 13.82L98.50 13.82L98.60 13.82L99.92 13.82L99.92 13.50C99.92 13.31 99.81 13.23 99.60 13.22C99.58 13.22 99.55 13.20 99.51 13.20C99.47 13.20 99.41 13.19 99.32 13.19C99.22 13.19 99.09 13.19 98.95 13.17L99.93 10.75L100.00 10.57L104.73 10.57L104.80 10.75L105.78 13.17C105.64 13.19 105.53 13.19 105.43 13.19C105.34 13.19 105.27 13.20 105.22 13.20C105.18 13.20 105.15 13.22 105.14 13.22C104.93 13.23 104.82 13.31 104.82 13.50L104.82 13.82L106.13 13.82L106.23 13.82L106.50 13.82L106.78 13.82L107.24 13.82L107.24 13.50C107.24 13.33 107.16 13.23 106.97 13.22ZM102.17 5.22C102.20 5.14 102.24 5.04 102.27 4.94C102.30 4.84 102.34 4.75 102.37 4.63C102.40 4.75 102.44 4.84 102.47 4.94C102.49 5.04 102.54 5.12 102.56 5.21L104.52 10.04L100.23 10.04ZM121.84 11.97C121.65 11.97 121.56 12.08 121.55 12.31C121.55 12.32 121.55 12.38 121.53 12.43C121.52 12.49 121.52 12.59 121.51 12.71C121.49 12.84 121.48 13.01 121.46 13.20L117.38 13.20L117.38 4.47C117.54 4.47 117.68 4.45 117.82 4.45C117.96 4.45 118.08 4.44 118.15 4.44L118.27 4.44C118.45 4.42 118.55 4.34 118.55 4.19L118.55 3.92L117.38 3.92L116.66 3.92L115.47 3.92L115.47 4.19C115.47 4.34 115.57 4.42 115.75 4.44L115.89 4.44C115.96 4.44 116.06 4.45 116.20 4.45C116.34 4.45 116.49 4.47 116.66 4.47L116.66 13.26C116.49 13.26 116.34 13.27 116.20 13.27C116.06 13.27 115.96 13.29 115.89 13.29L115.75 13.29C115.57 13.30 115.47 13.38 115.47 13.54L115.47 13.82L116.66 13.82L121.94 13.82L122.07 13.82L122.19 13.82L122.19 13.55L122.19 12.99L122.19 11.97L121.91 11.97ZM146.64 9.32L146.64 9.72C146.64 9.76 146.66 9.80 146.69 9.83C146.72 9.86 146.76 9.87 146.82 9.87L148.72 9.87L148.72 12.54C148.50 12.67 148.27 12.78 148.06 12.88C147.85 12.98 147.62 13.08 147.38 13.15C147.14 13.22 146.87 13.27 146.59 13.30C146.31 13.33 146.01 13.34 145.67 13.34C145.05 13.34 144.49 13.24 143.99 13.03C143.49 12.82 143.05 12.53 142.69 12.15C142.32 11.77 142.04 11.30 141.85 10.74C141.65 10.18 141.54 9.56 141.54 8.86C141.54 8.18 141.65 7.56 141.85 7.01C142.04 6.47 142.32 5.99 142.69 5.61C143.05 5.24 143.50 4.94 144.02 4.73C144.54 4.52 145.11 4.42 145.75 4.42C146.93 4.42 147.87 4.58 148.55 4.90C148.60 5.81 148.62 6.31 148.62 6.41C148.64 6.64 148.74 6.75 148.93 6.75L149.27 6.75L149.27 4.51C148.83 4.31 148.27 4.14 147.57 4.00C146.87 3.86 146.29 3.81 145.78 3.81C145.03 3.81 144.34 3.92 143.72 4.16C143.11 4.40 142.59 4.75 142.16 5.18C141.72 5.61 141.40 6.15 141.16 6.78C140.92 7.39 140.81 8.09 140.81 8.86C140.81 9.63 140.92 10.32 141.16 10.95C141.40 11.58 141.72 12.10 142.14 12.54C142.56 12.99 143.08 13.33 143.67 13.57C144.26 13.80 144.90 13.93 145.61 13.93C146.03 13.93 146.41 13.90 146.76 13.86C147.11 13.80 147.43 13.73 147.74 13.65C148.05 13.55 148.33 13.44 148.60 13.30C148.86 13.16 149.11 13.01 149.37 12.84L149.37 9.32ZM166.08 3.92L165.37 3.92L164.01 3.92L164.01 4.19C164.01 4.34 164.11 4.42 164.29 4.44L164.46 4.44C164.56 4.44 164.70 4.45 164.86 4.45C165.03 4.45 165.20 4.47 165.37 4.47L165.37 10.04C165.37 10.50 165.30 10.92 165.16 11.33C165.02 11.73 164.82 12.08 164.56 12.38C164.29 12.67 163.98 12.89 163.60 13.06C163.23 13.23 162.81 13.31 162.33 13.31C161.85 13.31 161.42 13.23 161.04 13.06C160.66 12.89 160.34 12.66 160.09 12.36C159.82 12.07 159.64 11.72 159.50 11.33C159.36 10.93 159.29 10.50 159.29 10.04L159.29 4.47C159.46 4.47 159.63 4.45 159.80 4.45C159.96 4.45 160.10 4.44 160.20 4.44L160.37 4.44C160.55 4.42 160.65 4.34 160.65 4.19L160.65 3.92L159.29 3.92L158.58 3.92L157.40 3.92L157.40 4.19C157.40 4.34 157.49 4.42 157.67 4.44L157.81 4.44C157.88 4.44 157.98 4.45 158.12 4.45C158.26 4.45 158.41 4.47 158.58 4.47L158.58 10.04C158.58 10.58 158.66 11.09 158.83 11.56C159.00 12.04 159.25 12.46 159.57 12.81C159.89 13.16 160.30 13.44 160.76 13.64C161.22 13.83 161.76 13.93 162.33 13.93C162.90 13.93 163.42 13.83 163.88 13.64C164.35 13.44 164.75 13.16 165.07 12.81C165.40 12.46 165.65 12.04 165.82 11.56C165.98 11.09 166.08 10.58 166.08 10.04L166.08 4.47C166.25 4.47 166.39 4.45 166.53 4.45C166.67 4.45 166.78 4.44 166.85 4.44L166.98 4.44C167.16 4.42 167.26 4.34 167.26 4.19L167.26 3.92ZM178.09 4.44C178.28 4.42 178.36 4.34 178.36 4.19L178.36 3.91L177.18 3.91L176.47 3.91L175.28 3.91L175.28 4.19C175.28 4.34 175.38 4.42 175.56 4.44L175.70 4.44C175.77 4.44 175.87 4.45 176.01 4.45C176.15 4.45 176.30 4.47 176.47 4.47L176.47 13.26C176.30 13.26 176.15 13.27 176.01 13.27C175.87 13.27 175.77 13.29 175.70 13.29L175.56 13.29C175.38 13.30 175.28 13.38 175.28 13.54L175.28 13.82L176.47 13.82L177.18 13.82L178.36 13.82L178.36 13.54C178.36 13.38 178.28 13.30 178.09 13.29L177.95 13.29C177.88 13.29 177.79 13.27 177.65 13.27C177.51 13.27 177.35 13.26 177.18 13.26L177.18 4.47C177.35 4.47 177.51 4.45 177.65 4.45C177.79 4.45 177.88 4.44 177.95 4.44ZM195.71 6.80C195.48 6.19 195.16 5.68 194.74 5.25C194.32 4.82 193.83 4.48 193.26 4.26C192.68 4.03 192.02 3.92 191.32 3.92L187.89 3.92L186.70 3.92L186.70 4.19C186.70 4.34 186.80 4.42 186.98 4.44L187.12 4.44C187.19 4.44 187.29 4.45 187.43 4.45C187.57 4.45 187.73 4.47 187.89 4.47L187.89 13.26C187.73 13.26 187.57 13.27 187.43 13.27C187.29 13.27 187.19 13.29 187.12 13.29L186.98 13.29C186.80 13.30 186.70 13.38 186.70 13.54L186.70 13.82L187.89 13.82L191.32 13.82C192.02 13.82 192.68 13.71 193.26 13.48C193.83 13.26 194.32 12.92 194.74 12.49C195.16 12.05 195.48 11.54 195.71 10.92C195.93 10.30 196.06 9.63 196.06 8.86C196.06 8.11 195.93 7.42 195.71 6.80ZM195.02 10.72C194.82 11.27 194.57 11.72 194.22 12.10C193.87 12.47 193.45 12.75 192.96 12.95C192.47 13.15 191.93 13.24 191.32 13.24L188.61 13.24L188.61 4.49L191.32 4.49C191.93 4.49 192.47 4.59 192.96 4.79C193.45 4.98 193.87 5.26 194.22 5.64C194.57 6.02 194.82 6.47 195.02 7.01C195.22 7.56 195.31 8.18 195.31 8.86C195.31 9.56 195.22 10.18 195.02 10.72ZM213.01 13.22L212.55 13.17L208.77 3.91L208.05 3.91L204.26 13.17L203.81 13.22C203.63 13.23 203.55 13.33 203.55 13.50L203.55 13.82L203.99 13.82L204.29 13.82L204.54 13.82L204.64 13.82L205.95 13.82L205.95 13.50C205.95 13.31 205.84 13.23 205.63 13.22C205.62 13.22 205.59 13.20 205.55 13.20C205.51 13.20 205.45 13.19 205.35 13.19C205.25 13.19 205.13 13.19 204.99 13.17L205.97 10.75L206.04 10.57L210.77 10.57L210.84 10.75L211.82 13.17C211.68 13.19 211.57 13.19 211.47 13.19C211.37 13.19 211.30 13.20 211.26 13.20C211.22 13.20 211.19 13.22 211.18 13.22C210.97 13.23 210.85 13.31 210.85 13.50L210.85 13.82L212.17 13.82L212.27 13.82L212.53 13.82L212.81 13.82L213.28 13.82L213.28 13.50C213.28 13.33 213.19 13.23 213.01 13.22ZM208.21 5.22C208.24 5.14 208.28 5.04 208.31 4.94C208.33 4.84 208.38 4.75 208.40 4.63C208.43 4.75 208.47 4.84 208.50 4.94C208.53 5.04 208.57 5.12 208.60 5.21L210.56 10.04L206.26 10.04ZM230.34 3.92L229.71 3.92L228.49 3.92L228.49 4.19C228.49 4.34 228.59 4.42 228.77 4.44L228.91 4.44C228.98 4.44 229.10 4.45 229.24 4.45C229.38 4.45 229.54 4.47 229.71 4.47L229.71 12.22C229.71 12.35 229.71 12.49 229.73 12.63L223.31 4.05C223.27 3.99 223.24 3.95 223.20 3.93C223.16 3.92 223.12 3.91 223.05 3.91L222.70 3.91L221.51 3.91L221.51 4.19C221.51 4.34 221.61 4.42 221.79 4.44L221.93 4.44C222.00 4.44 222.10 4.45 222.24 4.45C222.38 4.45 222.53 4.47 222.70 4.47L222.70 13.26C222.53 13.26 222.38 13.27 222.24 13.27C222.10 13.27 222.00 13.29 221.93 13.29L221.79 13.29C221.61 13.30 221.51 13.38 221.51 13.54L221.51 13.82L222.70 13.82L223.31 13.82L224.53 13.82L224.53 13.54C224.53 13.38 224.43 13.30 224.25 13.29L224.11 13.29C224.04 13.29 223.92 13.27 223.78 13.27C223.64 13.27 223.48 13.26 223.31 13.26L223.31 5.49C223.31 5.36 223.31 5.22 223.30 5.08L229.74 13.68C229.81 13.78 229.88 13.82 229.99 13.82L230.34 13.82L230.34 4.47C230.51 4.47 230.65 4.45 230.79 4.45C230.93 4.45 231.04 4.44 231.11 4.44L231.24 4.44C231.42 4.42 231.52 4.34 231.52 4.19L231.52 3.92ZM247.28 12.21C247.25 12.18 247.21 12.15 247.17 12.15C247.14 12.15 247.13 12.15 247.10 12.17C247.09 12.18 247.06 12.21 247.03 12.22C246.83 12.40 246.62 12.56 246.43 12.70C246.23 12.84 246.02 12.94 245.78 13.03C245.55 13.13 245.29 13.20 245.01 13.24C244.73 13.29 244.43 13.31 244.08 13.31C243.52 13.31 242.97 13.22 242.49 13.01C242.00 12.81 241.60 12.52 241.25 12.14C240.90 11.76 240.60 11.28 240.41 10.74C240.21 10.19 240.11 9.56 240.11 8.86C240.11 8.18 240.21 7.56 240.41 7.01C240.62 6.47 240.90 6.01 241.26 5.61C241.63 5.24 242.06 4.94 242.56 4.73C243.07 4.52 243.61 4.42 244.22 4.42C245.11 4.42 245.94 4.56 246.67 4.89C246.71 5.78 246.75 6.30 246.75 6.41C246.76 6.64 246.85 6.75 247.04 6.75L247.38 6.75L247.38 4.51C246.20 4.03 245.14 3.81 244.22 3.81C243.50 3.81 242.86 3.92 242.26 4.17C241.67 4.42 241.14 4.76 240.72 5.21C240.28 5.66 239.96 6.19 239.72 6.80C239.48 7.42 239.37 8.11 239.37 8.86C239.37 9.63 239.50 10.32 239.72 10.95C239.95 11.58 240.27 12.10 240.67 12.54C241.08 12.99 241.57 13.33 242.14 13.57C242.72 13.80 243.33 13.93 244.02 13.93C244.43 13.93 244.80 13.90 245.15 13.83C245.49 13.76 245.81 13.66 246.11 13.54C246.39 13.41 246.65 13.26 246.89 13.09C247.13 12.91 247.35 12.73 247.56 12.50ZM256.76 3.92L255.57 3.92L255.57 4.19C255.57 4.34 255.67 4.42 255.85 4.44L255.99 4.44C256.06 4.44 256.16 4.45 256.30 4.45C256.44 4.45 256.59 4.47 256.76 4.47L256.76 13.26C256.59 13.26 256.44 13.27 256.30 13.27C256.16 13.27 256.06 13.29 255.99 13.29L255.85 13.29C255.67 13.30 255.58 13.38 255.58 13.54L255.58 13.82L256.76 13.82L262.70 13.82L262.70 13.22L262.70 11.76L262.35 11.76C262.15 11.76 262.07 11.89 262.05 12.11C262.05 12.14 262.04 12.19 262.04 12.29C262.04 12.39 262.04 12.53 262.02 12.74C262.01 12.95 262.00 13.09 262.00 13.22L257.47 13.22L257.47 9.09L261.42 9.09L261.42 8.51L257.47 8.51L257.47 4.51L262.00 4.51C262.02 5.12 262.05 5.50 262.05 5.63C262.07 5.85 262.15 5.96 262.35 5.96L262.70 5.96L262.70 4.51L262.70 3.92ZM271.59 13.23C271.59 13.41 271.63 13.57 271.74 13.68C271.85 13.79 272.01 13.85 272.17 13.85L272.29 13.85C272.31 13.85 272.34 13.83 272.37 13.82C272.36 13.99 272.31 14.14 272.26 14.29C272.20 14.45 272.13 14.57 272.06 14.70C271.99 14.83 271.92 14.94 271.85 15.02C271.78 15.11 271.71 15.19 271.67 15.23C271.66 15.25 271.64 15.27 271.63 15.30C271.61 15.33 271.60 15.33 271.60 15.36C271.60 15.40 271.61 15.44 271.66 15.48L271.77 15.58C271.92 15.43 272.08 15.29 272.20 15.11C272.33 14.92 272.44 14.74 272.54 14.55C272.64 14.35 272.69 14.15 272.75 13.96C272.80 13.76 272.82 13.58 272.82 13.38C272.82 13.16 272.76 12.98 272.65 12.84C272.54 12.70 272.38 12.63 272.19 12.63C272.01 12.63 271.87 12.70 271.75 12.81C271.64 12.92 271.59 13.06 271.59 13.23ZM294.66 4.44C294.84 4.42 294.92 4.34 294.92 4.19L294.92 3.91L293.75 3.91L293.03 3.91L291.84 3.91L291.84 4.19C291.84 4.34 291.94 4.42 292.12 4.44L292.26 4.44C292.33 4.44 292.43 4.45 292.57 4.45C292.71 4.45 292.87 4.47 293.03 4.47L293.03 13.26C292.87 13.26 292.71 13.27 292.57 13.27C292.43 13.27 292.33 13.29 292.26 13.29L292.12 13.29C291.94 13.30 291.84 13.38 291.84 13.54L291.84 13.82L293.03 13.82L293.75 13.82L294.92 13.82L294.92 13.54C294.92 13.38 294.84 13.30 294.66 13.29L294.52 13.29C294.45 13.29 294.35 13.27 294.21 13.27C294.07 13.27 293.92 13.26 293.75 13.26L293.75 4.47C293.92 4.47 294.07 4.45 294.21 4.45C294.35 4.45 294.45 4.44 294.52 4.44ZM312.10 3.92L311.47 3.92L310.25 3.92L310.25 4.19C310.25 4.34 310.35 4.42 310.53 4.44L310.67 4.44C310.74 4.44 310.86 4.45 311.00 4.45C311.14 4.45 311.30 4.47 311.47 4.47L311.47 12.22C311.47 12.35 311.47 12.49 311.49 12.63L305.07 4.05C305.03 3.99 305.00 3.95 304.96 3.93C304.92 3.92 304.88 3.91 304.81 3.91L304.46 3.91L303.27 3.91L303.27 4.19C303.27 4.34 303.37 4.42 303.55 4.44L303.69 4.44C303.76 4.44 303.86 4.45 304.00 4.45C304.14 4.45 304.29 4.47 304.46 4.47L304.46 13.26C304.29 13.26 304.14 13.27 304.00 13.27C303.86 13.27 303.76 13.29 303.69 13.29L303.55 13.29C303.37 13.30 303.27 13.38 303.27 13.54L303.27 13.82L304.46 13.82L305.07 13.82L306.29 13.82L306.29 13.54C306.29 13.38 306.19 13.30 306.01 13.29L305.87 13.29C305.80 13.29 305.68 13.27 305.54 13.27C305.40 13.27 305.24 13.26 305.07 13.26L305.07 5.49C305.07 5.36 305.07 5.22 305.06 5.08L311.50 13.68C311.57 13.78 311.64 13.82 311.75 13.82L312.10 13.82L312.10 4.47C312.27 4.47 312.41 4.45 312.55 4.45C312.69 4.45 312.80 4.44 312.87 4.44L313.00 4.44C313.18 4.42 313.28 4.34 313.28 4.19L313.28 3.92ZM328.44 3.92L328.09 3.92L322.50 3.92L321.31 3.92L321.31 4.19C321.31 4.34 321.41 4.42 321.59 4.44L321.73 4.44C321.80 4.44 321.90 4.45 322.04 4.45C322.18 4.45 322.34 4.47 322.50 4.47L322.50 13.26C322.34 13.26 322.18 13.27 322.04 13.27C321.90 13.27 321.80 13.29 321.73 13.29L321.59 13.29C321.41 13.30 321.31 13.38 321.31 13.54L321.31 13.82L322.50 13.82L323.22 13.82L324.39 13.82L324.39 13.54C324.39 13.38 324.31 13.30 324.13 13.29L323.99 13.29C323.92 13.29 323.82 13.27 323.68 13.27C323.54 13.27 323.39 13.26 323.22 13.26L323.22 9.27L326.91 9.27L326.91 8.67L323.22 8.67L323.22 4.51L327.82 4.51C327.85 5.18 327.88 5.56 327.88 5.63C327.89 5.85 327.99 5.96 328.19 5.96L328.52 5.96L328.52 3.92ZM339.46 4.44C339.64 4.42 339.72 4.34 339.72 4.19L339.72 3.91L338.55 3.91L337.83 3.91L336.64 3.91L336.64 4.19C336.64 4.34 336.74 4.42 336.92 4.44L337.06 4.44C337.13 4.44 337.23 4.45 337.37 4.45C337.51 4.45 337.67 4.47 337.83 4.47L337.83 13.26C337.67 13.26 337.51 13.27 337.37 13.27C337.23 13.27 337.13 13.29 337.06 13.29L336.92 13.29C336.74 13.30 336.64 13.38 336.64 13.54L336.64 13.82L337.83 13.82L338.55 13.82L339.72 13.82L339.72 13.54C339.72 13.38 339.64 13.30 339.46 13.29L339.32 13.29C339.25 13.29 339.15 13.27 339.01 13.27C338.87 13.27 338.72 13.26 338.55 13.26L338.55 4.47C338.72 4.47 338.87 4.45 339.01 4.45C339.15 4.45 339.25 4.44 339.32 4.44ZM356.90 3.92L356.27 3.92L355.05 3.92L355.05 4.19C355.05 4.34 355.15 4.42 355.33 4.44L355.47 4.44C355.54 4.44 355.66 4.45 355.80 4.45C355.94 4.45 356.10 4.47 356.27 4.47L356.27 12.22C356.27 12.35 356.27 12.49 356.29 12.63L349.87 4.05C349.83 3.99 349.80 3.95 349.76 3.93C349.72 3.92 349.68 3.91 349.61 3.91L349.26 3.91L348.07 3.91L348.07 4.19C348.07 4.34 348.17 4.42 348.35 4.44L348.49 4.44C348.56 4.44 348.66 4.45 348.80 4.45C348.94 4.45 349.09 4.47 349.26 4.47L349.26 13.26C349.09 13.26 348.94 13.27 348.80 13.27C348.66 13.27 348.56 13.29 348.49 13.29L348.35 13.29C348.17 13.30 348.07 13.38 348.07 13.54L348.07 13.82L349.26 13.82L349.87 13.82L351.09 13.82L351.09 13.54C351.09 13.38 350.99 13.30 350.81 13.29L350.67 13.29C350.60 13.29 350.48 13.27 350.34 13.27C350.20 13.27 350.04 13.26 349.87 13.26L349.87 5.49C349.87 5.36 349.87 5.22 349.86 5.08L356.30 13.68C356.37 13.78 356.44 13.82 356.55 13.82L356.90 13.82L356.90 4.47C357.07 4.47 357.21 4.45 357.35 4.45C357.49 4.45 357.60 4.44 357.67 4.44L357.80 4.44C357.98 4.42 358.08 4.34 358.08 4.19L358.08 3.92ZM368.93 4.44C369.11 4.42 369.19 4.34 369.19 4.19L369.19 3.91L368.02 3.91L367.30 3.91L366.11 3.91L366.11 4.19C366.11 4.34 366.21 4.42 366.39 4.44L366.53 4.44C366.60 4.44 366.70 4.45 366.84 4.45C366.98 4.45 367.14 4.47 367.30 4.47L367.30 13.26C367.14 13.26 366.98 13.27 366.84 13.27C366.70 13.27 366.60 13.29 366.53 13.29L366.39 13.29C366.21 13.30 366.11 13.38 366.11 13.54L366.11 13.82L367.30 13.82L368.02 13.82L369.19 13.82L369.19 13.54C369.19 13.38 369.11 13.30 368.93 13.29L368.79 13.29C368.72 13.29 368.62 13.27 368.48 13.27C368.34 13.27 368.19 13.26 368.02 13.26L368.02 4.47C368.19 4.47 368.34 4.45 368.48 4.45C368.62 4.45 368.72 4.44 368.79 4.44ZM385.06 3.92L384.86 3.92L377.57 3.92L377.36 3.92L377.26 3.92L377.26 5.96L377.61 5.96C377.80 5.96 377.89 5.85 377.90 5.63C377.90 5.53 377.93 5.17 377.96 4.52L380.86 4.52L380.86 13.26C380.69 13.26 380.55 13.27 380.41 13.27C380.27 13.27 380.16 13.29 380.09 13.29L379.96 13.29C379.78 13.30 379.68 13.38 379.68 13.54L379.68 13.82L380.86 13.82L381.57 13.82L382.76 13.82L382.76 13.54C382.76 13.38 382.66 13.30 382.48 13.29L382.34 13.29C382.27 13.29 382.17 13.27 382.03 13.27C381.89 13.27 381.74 13.26 381.57 13.26L381.57 4.52L384.45 4.52C384.50 5.24 384.51 5.60 384.51 5.63C384.52 5.85 384.62 5.96 384.82 5.96L385.15 5.96L385.15 3.92ZM394.45 3.92L393.26 3.92L393.26 4.19C393.26 4.34 393.36 4.42 393.54 4.44L393.68 4.44C393.75 4.44 393.85 4.45 393.99 4.45C394.13 4.45 394.28 4.47 394.45 4.47L394.45 13.26C394.28 13.26 394.13 13.27 393.99 13.27C393.85 13.27 393.75 13.29 393.68 13.29L393.54 13.29C393.36 13.30 393.27 13.38 393.27 13.54L393.27 13.82L394.45 13.82L400.39 13.82L400.39 13.22L400.39 11.76L400.04 11.76C399.84 11.76 399.76 11.89 399.74 12.11C399.74 12.14 399.73 12.19 399.73 12.29C399.73 12.39 399.73 12.53 399.71 12.74C399.70 12.95 399.69 13.09 399.69 13.22L395.16 13.22L395.16 9.09L399.11 9.09L399.11 8.51L395.16 8.51L395.16 4.51L399.69 4.51C399.71 5.12 399.74 5.50 399.74 5.63C399.76 5.85 399.84 5.96 400.04 5.96L400.39 5.96L400.39 4.51L400.39 3.92ZM425.57 4.68C424.98 4.17 424.10 3.92 422.94 3.92L420.53 3.92L419.34 3.92L419.34 4.19C419.34 4.34 419.44 4.42 419.62 4.44L419.76 4.44C419.83 4.44 419.93 4.45 420.07 4.45C420.21 4.45 420.36 4.47 420.53 4.47L420.53 13.26C420.36 13.26 420.21 13.27 420.07 13.27C419.93 13.27 419.83 13.29 419.76 13.29L419.62 13.29C419.44 13.30 419.34 13.38 419.34 13.54L419.34 13.82L420.53 13.82L421.25 13.82L422.42 13.82L422.42 13.54C422.42 13.38 422.32 13.30 422.14 13.29L422.02 13.29C421.95 13.29 421.83 13.27 421.69 13.27C421.55 13.27 421.41 13.26 421.25 13.26L421.25 9.83L422.94 9.83C423.49 9.83 423.98 9.74 424.41 9.60C424.84 9.45 425.21 9.25 425.52 8.99C425.82 8.72 426.06 8.41 426.22 8.05C426.38 7.69 426.45 7.29 426.45 6.86C426.45 5.92 426.16 5.18 425.57 4.68ZM425.54 7.81C425.42 8.11 425.24 8.36 425.00 8.57C424.76 8.78 424.47 8.95 424.12 9.07C423.77 9.20 423.37 9.25 422.94 9.25L421.25 9.25L421.25 4.48L422.94 4.48C423.86 4.48 424.56 4.69 425.04 5.10C425.50 5.50 425.74 6.09 425.74 6.85C425.74 7.20 425.67 7.52 425.54 7.81ZM443.91 8.86C443.91 8.11 443.79 7.41 443.56 6.79C443.34 6.17 443.02 5.64 442.60 5.19C442.18 4.75 441.69 4.40 441.11 4.16C440.54 3.92 439.88 3.79 439.18 3.79C438.48 3.79 437.85 3.92 437.28 4.16C436.70 4.40 436.20 4.75 435.78 5.19C435.36 5.64 435.04 6.17 434.81 6.79C434.59 7.41 434.46 8.11 434.46 8.86C434.46 9.63 434.59 10.33 434.81 10.95C435.04 11.56 435.36 12.10 435.78 12.54C436.20 12.99 436.70 13.33 437.28 13.57C437.85 13.80 438.48 13.93 439.18 13.93C439.88 13.93 440.54 13.80 441.11 13.57C441.69 13.33 442.18 12.99 442.60 12.54C443.02 12.10 443.34 11.56 443.56 10.95C443.79 10.33 443.91 9.63 443.91 8.86ZM443.16 8.86C443.16 9.56 443.07 10.18 442.88 10.72C442.68 11.27 442.41 11.75 442.06 12.12C441.71 12.50 441.29 12.81 440.80 13.01C440.31 13.20 439.78 13.30 439.18 13.30C438.59 13.30 438.06 13.20 437.57 13.01C437.08 12.81 436.66 12.50 436.31 12.12C435.96 11.75 435.68 11.27 435.48 10.72C435.29 10.18 435.20 9.56 435.20 8.86C435.20 8.18 435.29 7.55 435.48 7.00C435.68 6.45 435.96 5.98 436.31 5.60C436.66 5.22 437.08 4.91 437.57 4.72C438.06 4.52 438.59 4.41 439.18 4.41C439.78 4.41 440.31 4.52 440.80 4.72C441.29 4.91 441.71 5.22 442.06 5.60C442.41 5.98 442.68 6.45 442.88 7.00C443.07 7.55 443.16 8.18 443.16 8.86ZM457.91 9.91C457.77 9.65 457.58 9.39 457.34 9.21C457.10 9.03 456.85 8.88 456.55 8.75C456.26 8.62 455.94 8.51 455.63 8.41C455.32 8.32 455.01 8.20 454.72 8.11C454.43 7.99 454.16 7.87 453.92 7.71C453.68 7.56 453.50 7.38 453.36 7.15C453.22 6.93 453.14 6.65 453.14 6.31C453.14 6.06 453.19 5.82 453.29 5.59C453.39 5.35 453.53 5.15 453.71 4.97C453.89 4.79 454.12 4.65 454.40 4.55C454.68 4.45 454.99 4.40 455.35 4.40C456.02 4.40 456.64 4.51 457.20 4.75C457.24 5.54 457.27 5.99 457.27 6.06C457.28 6.29 457.37 6.41 457.56 6.41L457.90 6.41L457.90 4.38C457.02 4.00 456.18 3.81 455.35 3.81C454.89 3.81 454.48 3.88 454.12 4.02C453.75 4.16 453.46 4.34 453.22 4.58C452.98 4.82 452.79 5.08 452.66 5.39C452.54 5.70 452.48 6.02 452.48 6.36C452.48 6.78 452.55 7.14 452.69 7.42C452.83 7.70 453.03 7.92 453.26 8.12C453.50 8.32 453.75 8.46 454.05 8.58C454.34 8.71 454.66 8.82 454.97 8.92C455.28 9.02 455.57 9.11 455.88 9.21C456.18 9.31 456.44 9.45 456.68 9.60C456.92 9.76 457.10 9.94 457.24 10.16C457.38 10.39 457.45 10.68 457.45 11.03C457.45 11.35 457.39 11.66 457.28 11.94C457.17 12.22 457.02 12.46 456.81 12.67C456.60 12.88 456.33 13.05 456.02 13.16C455.71 13.29 455.36 13.33 454.97 13.33C454.19 13.33 453.53 13.20 453.00 12.95C452.98 12.75 452.98 12.54 452.97 12.32C452.96 12.10 452.96 11.91 452.94 11.76C452.93 11.61 452.93 11.52 452.93 11.51C452.91 11.28 452.82 11.17 452.62 11.17L452.28 11.17L452.28 13.02L452.28 13.20L452.28 13.38C453.14 13.75 454.02 13.93 454.94 13.93C455.45 13.93 455.90 13.85 456.29 13.69C456.68 13.54 457.02 13.31 457.28 13.05C457.55 12.78 457.77 12.46 457.91 12.10C458.05 11.73 458.12 11.34 458.12 10.92C458.12 10.51 458.05 10.18 457.91 9.91ZM472.11 9.91C471.97 9.65 471.77 9.39 471.53 9.21C471.30 9.03 471.04 8.88 470.75 8.75C470.46 8.62 470.13 8.51 469.83 8.41C469.52 8.32 469.21 8.20 468.92 8.11C468.62 7.99 468.36 7.87 468.12 7.71C467.88 7.56 467.70 7.38 467.56 7.15C467.42 6.93 467.33 6.65 467.33 6.31C467.33 6.06 467.39 5.82 467.49 5.59C467.59 5.35 467.73 5.15 467.91 4.97C468.09 4.79 468.31 4.65 468.59 4.55C468.87 4.45 469.18 4.40 469.55 4.40C470.22 4.40 470.83 4.51 471.39 4.75C471.44 5.54 471.46 5.99 471.46 6.06C471.48 6.29 471.56 6.41 471.76 6.41L472.09 6.41L472.09 4.38C471.21 4.00 470.37 3.81 469.55 3.81C469.08 3.81 468.68 3.88 468.31 4.02C467.95 4.16 467.66 4.34 467.42 4.58C467.18 4.82 466.98 5.08 466.86 5.39C466.73 5.70 466.68 6.02 466.68 6.36C466.68 6.78 466.75 7.14 466.89 7.42C467.03 7.70 467.22 7.92 467.46 8.12C467.70 8.32 467.95 8.46 468.24 8.58C468.54 8.71 468.86 8.82 469.17 8.92C469.48 9.02 469.77 9.11 470.08 9.21C470.37 9.31 470.64 9.45 470.88 9.60C471.11 9.76 471.30 9.94 471.44 10.16C471.58 10.39 471.65 10.68 471.65 11.03C471.65 11.35 471.59 11.66 471.48 11.94C471.37 12.22 471.21 12.46 471.00 12.67C470.79 12.88 470.53 13.05 470.22 13.16C469.91 13.29 469.56 13.33 469.17 13.33C468.38 13.33 467.73 13.20 467.19 12.95C467.18 12.75 467.18 12.54 467.17 12.32C467.15 12.10 467.15 11.91 467.14 11.76C467.12 11.61 467.12 11.52 467.12 11.51C467.11 11.28 467.01 11.17 466.82 11.17L466.48 11.17L466.48 13.02L466.48 13.20L466.48 13.38C467.33 13.75 468.22 13.93 469.14 13.93C469.64 13.93 470.09 13.85 470.48 13.69C470.88 13.54 471.21 13.31 471.48 13.05C471.74 12.78 471.97 12.46 472.11 12.10C472.25 11.73 472.32 11.34 472.32 10.92C472.32 10.51 472.25 10.18 472.11 9.91ZM483.39 4.44C483.57 4.42 483.66 4.34 483.66 4.19L483.66 3.91L482.48 3.91L481.77 3.91L480.58 3.91L480.58 4.19C480.58 4.34 480.68 4.42 480.86 4.44L481.00 4.44C481.07 4.44 481.17 4.45 481.31 4.45C481.45 4.45 481.60 4.47 481.77 4.47L481.77 13.26C481.60 13.26 481.45 13.27 481.31 13.27C481.17 13.27 481.07 13.29 481.00 13.29L480.86 13.29C480.68 13.30 480.58 13.38 480.58 13.54L480.58 13.82L481.77 13.82L482.48 13.82L483.66 13.82L483.66 13.54C483.66 13.38 483.57 13.30 483.39 13.29L483.25 13.29C483.18 13.29 483.08 13.27 482.94 13.27C482.80 13.27 482.65 13.26 482.48 13.26L482.48 4.47C482.65 4.47 482.80 4.45 482.94 4.45C483.08 4.45 483.18 4.44 483.25 4.44ZM499.11 9.52C498.69 9.11 498.09 8.86 497.31 8.75C497.63 8.67 497.91 8.55 498.16 8.40C498.41 8.25 498.64 8.08 498.81 7.87C498.97 7.66 499.11 7.43 499.20 7.20C499.28 6.96 499.34 6.71 499.34 6.44C499.34 6.05 499.25 5.68 499.13 5.38C499.00 5.07 498.79 4.80 498.53 4.58C498.26 4.37 497.92 4.20 497.50 4.09C497.08 3.98 496.59 3.92 496.03 3.92L493.19 3.92L492.00 3.92L492.00 4.19C492.00 4.34 492.10 4.42 492.28 4.44L492.42 4.44C492.49 4.44 492.59 4.45 492.73 4.45C492.87 4.45 493.02 4.47 493.19 4.47L493.19 13.26C493.02 13.26 492.87 13.27 492.73 13.27C492.59 13.27 492.49 13.29 492.42 13.29L492.28 13.29C492.10 13.30 492.02 13.38 492.02 13.54L492.02 13.82L493.19 13.82L496.40 13.82C496.93 13.82 497.39 13.76 497.81 13.64C498.23 13.51 498.58 13.34 498.86 13.10C499.14 12.87 499.37 12.59 499.52 12.25C499.67 11.91 499.74 11.54 499.74 11.12C499.74 10.46 499.53 9.93 499.11 9.52ZM493.91 4.48L496.03 4.48C496.92 4.48 497.57 4.66 497.99 5.00C498.41 5.35 498.62 5.84 498.62 6.51C498.62 6.76 498.58 7.03 498.48 7.27C498.39 7.50 498.23 7.71 498.02 7.91C497.81 8.11 497.55 8.26 497.22 8.37C496.90 8.48 496.51 8.55 496.05 8.55L493.91 8.55ZM498.36 12.68C497.91 13.06 497.25 13.24 496.38 13.24L493.91 13.24L493.91 9.07L496.40 9.07C496.82 9.07 497.18 9.11 497.50 9.21C497.83 9.31 498.11 9.45 498.33 9.62C498.55 9.80 498.72 10.00 498.85 10.25C498.96 10.50 499.03 10.79 499.03 11.10C499.03 11.79 498.81 12.31 498.36 12.68ZM510.75 4.44C510.93 4.42 511.01 4.34 511.01 4.19L511.01 3.91L509.84 3.91L509.12 3.91L507.93 3.91L507.93 4.19C507.93 4.34 508.03 4.42 508.21 4.44L508.35 4.44C508.42 4.44 508.52 4.45 508.66 4.45C508.80 4.45 508.96 4.47 509.12 4.47L509.12 13.26C508.96 13.26 508.80 13.27 508.66 13.27C508.52 13.27 508.42 13.29 508.35 13.29L508.21 13.29C508.03 13.30 507.93 13.38 507.93 13.54L507.93 13.82L509.12 13.82L509.84 13.82L511.01 13.82L511.01 13.54C511.01 13.38 510.93 13.30 510.75 13.29L510.61 13.29C510.54 13.29 510.44 13.27 510.30 13.27C510.16 13.27 510.01 13.26 509.84 13.26L509.84 4.47C510.01 4.47 510.16 4.45 510.30 4.45C510.44 4.45 510.54 4.44 510.61 4.44ZM525.73 11.97C525.53 11.97 525.45 12.08 525.43 12.31C525.43 12.32 525.43 12.38 525.42 12.43C525.41 12.49 525.41 12.59 525.39 12.71C525.38 12.84 525.36 13.01 525.35 13.20L521.26 13.20L521.26 4.47C521.43 4.47 521.57 4.45 521.71 4.45C521.85 4.45 521.96 4.44 522.03 4.44L522.16 4.44C522.34 4.42 522.44 4.34 522.44 4.19L522.44 3.92L521.26 3.92L520.55 3.92L519.36 3.92L519.36 4.19C519.36 4.34 519.46 4.42 519.64 4.44L519.78 4.44C519.85 4.44 519.95 4.45 520.09 4.45C520.23 4.45 520.38 4.47 520.55 4.47L520.55 13.26C520.38 13.26 520.23 13.27 520.09 13.27C519.95 13.27 519.85 13.29 519.78 13.29L519.64 13.29C519.46 13.30 519.36 13.38 519.36 13.54L519.36 13.82L520.55 13.82L525.83 13.82L525.95 13.82L526.08 13.82L526.08 13.55L526.08 12.99L526.08 11.97L525.80 11.97ZM537.32 4.44C537.50 4.42 537.59 4.34 537.59 4.19L537.59 3.91L536.41 3.91L535.70 3.91L534.51 3.91L534.51 4.19C534.51 4.34 534.60 4.42 534.79 4.44L534.93 4.44C535.00 4.44 535.09 4.45 535.23 4.45C535.37 4.45 535.53 4.47 535.70 4.47L535.70 13.26C535.53 13.26 535.37 13.27 535.23 13.27C535.09 13.27 535.00 13.29 534.93 13.29L534.79 13.29C534.60 13.30 534.51 13.38 534.51 13.54L534.51 13.82L535.70 13.82L536.41 13.82L537.59 13.82L537.59 13.54C537.59 13.38 537.50 13.30 537.32 13.29L537.18 13.29C537.11 13.29 537.01 13.27 536.87 13.27C536.73 13.27 536.58 13.26 536.41 13.26L536.41 4.47C536.58 4.47 536.73 4.45 536.87 4.45C537.01 4.45 537.11 4.44 537.18 4.44ZM553.45 3.92L553.25 3.92L545.96 3.92L545.75 3.92L545.65 3.92L545.65 5.96L546.00 5.96C546.20 5.96 546.28 5.85 546.29 5.63C546.29 5.53 546.32 5.17 546.35 4.52L549.25 4.52L549.25 13.26C549.08 13.26 548.94 13.27 548.80 13.27C548.66 13.27 548.55 13.29 548.48 13.29L548.35 13.29C548.17 13.30 548.07 13.38 548.07 13.54L548.07 13.82L549.25 13.82L549.96 13.82L551.15 13.82L551.15 13.54C551.15 13.38 551.05 13.30 550.87 13.29L550.73 13.29C550.66 13.29 550.56 13.27 550.42 13.27C550.28 13.27 550.13 13.26 549.96 13.26L549.96 4.52L552.85 4.52C552.89 5.24 552.90 5.60 552.90 5.63C552.92 5.85 553.01 5.96 553.21 5.96L553.55 5.96L553.55 3.92ZM564.47 4.44C564.65 4.42 564.73 4.34 564.73 4.19L564.73 3.91L563.56 3.91L562.84 3.91L561.65 3.91L561.65 4.19C561.65 4.34 561.75 4.42 561.93 4.44L562.07 4.44C562.14 4.44 562.24 4.45 562.38 4.45C562.52 4.45 562.67 4.47 562.84 4.47L562.84 13.26C562.67 13.26 562.52 13.27 562.38 13.27C562.24 13.27 562.14 13.29 562.07 13.29L561.93 13.29C561.75 13.30 561.65 13.38 561.65 13.54L561.65 13.82L562.84 13.82L563.56 13.82L564.73 13.82L564.73 13.54C564.73 13.38 564.65 13.30 564.47 13.29L564.33 13.29C564.26 13.29 564.16 13.27 564.02 13.27C563.88 13.27 563.72 13.26 563.56 13.26L563.56 4.47C563.72 4.47 563.88 4.45 564.02 4.45C564.16 4.45 564.26 4.44 564.33 4.44ZM574.27 3.92L573.08 3.92L573.08 4.19C573.08 4.34 573.17 4.42 573.36 4.44L573.50 4.44C573.57 4.44 573.66 4.45 573.80 4.45C573.94 4.45 574.10 4.47 574.27 4.47L574.27 13.26C574.10 13.26 573.94 13.27 573.80 13.27C573.66 13.27 573.57 13.29 573.50 13.29L573.36 13.29C573.17 13.30 573.09 13.38 573.09 13.54L573.09 13.82L574.27 13.82L580.20 13.82L580.20 13.22L580.20 11.76L579.85 11.76C579.66 11.76 579.57 11.89 579.56 12.11C579.56 12.14 579.54 12.19 579.54 12.29C579.54 12.39 579.54 12.53 579.53 12.74C579.52 12.95 579.50 13.09 579.50 13.22L574.98 13.22L574.98 9.09L578.93 9.09L578.93 8.51L574.98 8.51L574.98 4.51L579.50 4.51C579.53 5.12 579.56 5.50 579.56 5.63C579.57 5.85 579.66 5.96 579.85 5.96L580.20 5.96L580.20 4.51L580.20 3.92ZM594.51 9.91C594.37 9.65 594.17 9.39 593.94 9.21C593.70 9.03 593.45 8.88 593.15 8.75C592.86 8.62 592.54 8.51 592.23 8.41C591.92 8.32 591.61 8.20 591.32 8.11C591.02 7.99 590.76 7.87 590.52 7.71C590.28 7.56 590.10 7.38 589.96 7.15C589.82 6.93 589.74 6.65 589.74 6.31C589.74 6.06 589.79 5.82 589.89 5.59C589.99 5.35 590.13 5.15 590.31 4.97C590.49 4.79 590.72 4.65 591.00 4.55C591.28 4.45 591.58 4.40 591.95 4.40C592.62 4.40 593.24 4.51 593.80 4.75C593.84 5.54 593.87 5.99 593.87 6.06C593.88 6.29 593.96 6.41 594.16 6.41L594.50 6.41L594.50 4.38C593.61 4.00 592.77 3.81 591.95 3.81C591.49 3.81 591.08 3.88 590.72 4.02C590.35 4.16 590.06 4.34 589.82 4.58C589.58 4.82 589.39 5.08 589.26 5.39C589.13 5.70 589.08 6.02 589.08 6.36C589.08 6.78 589.15 7.14 589.29 7.42C589.43 7.70 589.62 7.92 589.86 8.12C590.10 8.32 590.35 8.46 590.65 8.58C590.94 8.71 591.26 8.82 591.57 8.92C591.88 9.02 592.17 9.11 592.48 9.21C592.77 9.31 593.04 9.45 593.28 9.60C593.52 9.76 593.70 9.94 593.84 10.16C593.98 10.39 594.05 10.68 594.05 11.03C594.05 11.35 593.99 11.66 593.88 11.94C593.77 12.22 593.61 12.46 593.40 12.67C593.19 12.88 592.93 13.05 592.62 13.16C592.31 13.29 591.96 13.33 591.57 13.33C590.79 13.33 590.13 13.20 589.60 12.95C589.58 12.75 589.58 12.54 589.57 12.32C589.55 12.10 589.55 11.91 589.54 11.76C589.53 11.61 589.53 11.52 589.53 11.51C589.51 11.28 589.41 11.17 589.22 11.17L588.88 11.17L588.88 13.02L588.88 13.20L588.88 13.38C589.74 13.75 590.62 13.93 591.54 13.93C592.05 13.93 592.49 13.85 592.89 13.69C593.28 13.54 593.61 13.31 593.88 13.05C594.15 12.78 594.37 12.46 594.51 12.10C594.65 11.73 594.72 11.34 594.72 10.92C594.72 10.51 594.65 10.18 594.51 9.91Z"></path></g></svg>